<svg xmlns="http://www.w3.org/2000/svg" fill="none" viewBox="0 0 992 243" class="styles_icon__x_9Ga"><path fill="currentColor" fill-rule="evenodd" d="M885.251 0c32.36 0 64.748 7.312 81.304 21.935l-.058-.029c16.584 14.653 24.891 35.398 24.891 62.237v75.874c0 26.462-8.365 46.917-25.007 61.338C949.68 235.775 917.292 243 884.904 243c-32.359 0-66.686-.232-85.268-21.326-19.712-22.398-12.436-39.468-4.484-58.128 4.73-11.096 9.699-22.755 9.375-36.432-.297-12.403-5.821-21.183-11.352-29.974-7.95-12.637-15.915-25.296-8.387-48.772C798.999 4.033 847.132 0 885.251 0m44.255 194.023c7.439-7.312 11.173-19.847 11.173-37.691V87.857c0-18.221-3.705-31.075-11.173-38.619-7.467-7.544-28.104-11.257-46.02-11.257s-38.553 3.742-46.021 11.257c-7.438 7.515-11.172 20.398-11.172 38.62v68.474c0 17.815 3.705 30.379 11.172 37.691 7.468 7.311 28.105 10.967 46.021 10.967s38.553-3.656 46.02-10.967m-828.62 47.642c-19.359 0-37.737-2.989-55.163-8.966S13.237 217.466.543 204.903l17.31-33.831c12.522 10.59 25.966 18.54 40.334 23.821 14.368 5.309 30.755 7.921 49.133 7.921 14.656 0 25.821-2.641 33.438-7.921 7.617-5.31 11.454-12.941 11.454-22.951 0-8.994-4.443-15.552-13.358-19.556-8.886-4.033-27.726-8.501-56.461-13.405-27.582-4.323-47.056-11.315-58.394-21.035S6.977 93.689 6.977 74.249c0-20.977 7.847-38.386 23.484-52.197C46.127 8.27 69.006 1.335 99.126 1.335c18.205 0 35.545 2.989 52.134 8.995 16.531 5.977 29.601 14.246 39.179 24.865l-15.262 32.352c-11.742-8.908-24.033-15.697-36.842-20.368-12.81-4.643-26.168-6.993-40.045-6.993-12.925 0-23.081 2.321-30.525 6.935Q56.6 54.04 56.6 68.533c0 9.053 4.559 15.552 13.647 19.498s28.302 8.502 57.644 13.608c27.206 4.701 46.363 12.041 57.528 22.052 11.165 9.981 16.734 24.691 16.734 44.102 0 23.328-8.973 41.462-26.86 54.403-17.917 12.94-42.7 19.411-74.407 19.411zm253.38 1.334c-34.976 0-68.095-7.225-83.524-21.674-15.429-14.478-23.144-36.82-23.144-67.14V4.005h50.115v146.031c0 18.859 3.335 32.264 10.035 40.127 6.699 7.892 27.464 11.809 46.547 11.809 19.084 0 39.849-3.946 46.548-11.809 4.245-4.982 5.323-12.398 6.693-21.827.793-5.454 1.684-11.581 3.342-18.3 1.657-6.697 7.566-15.318 13.621-24.153 7.614-11.11 15.461-22.558 15.38-30.946-.081-8.395-7.921-19.296-15.493-29.823-6.011-8.358-11.853-16.48-13.508-22.926-2.378-9.227 0-38.183 0-38.183h50.115s.522 28.637 0 38.183c-.323 5.757-1.484 14.017-2.683 22.554-1.496 10.652-3.053 21.734-3.118 28.918-.066 8.653 1.587 22.145 3.157 34.963l.001.001c1.189 9.705 2.33 19.023 2.643 25.561 1.45 30.262-7.715 52.691-23.144 67.14-15.458 14.449-48.549 21.674-83.525 21.674zm302.627-4.026s-11.886-13.574-21.531-45.15c-3.505-11.485-4.66-21.18-5.724-30.119-1.378-11.574-2.606-21.882-8.59-33.169-4.868-9.187-12.344-14.34-20.849-20.201-6.993-4.819-14.68-10.117-22.186-18.53-14.794-16.581-21.237-35.793-21.237-35.793v182.962h-43.383V4.028h68.902s21.131 33.241 30.536 53.527c5.112 11.023 6.842 20.918 8.586 30.89 1.893 10.823 3.801 21.735 10.063 34.277 10.532 21.109 17.143 26.397 24.941 32.635 3.966 3.172 8.24 6.591 13.492 12.461 8.791 9.827 12.5 19.749 12.5 19.749V4.027h43.102v234.946h-68.622" clip-rule="evenodd"></path></svg>